<svg xmlns="http://www.w3.org/2000/svg" width="256" height="256" fill="none" viewBox="0 0 100 100"><title>Sanmoji @ oois.xyz</title><style>@keyframes grow{0%{stroke-dashoffset:1px;stroke-dasharray:0 350px;opacity:0}10%{opacity:1;transform:translate(0,1%)}20%{transform:translate(0,0)}40%,85%{stroke-dasharray:350px 0}95%,to{stroke-dasharray:0 350px}}@media (prefers-reduced-motion){path{animation:none!important;stroke-dasharray:unset!important}}path{stroke-dashoffset:1px;stroke-dasharray:350px 0;animation:grow 10s ease forwards infinite;transform-origin:center;stroke:#303030;animation-delay:1s}@media (prefers-color-scheme:dark){path{stroke:#fdfdfd}}</style><path stroke="#000" stroke-linecap="round" stroke-linejoin="round" stroke-width="3.5" d="M41.75 42.70L48.35 42.70Q54.15 42.70 56.80 40.50Q59.45 38.30 59.45 35.10L59.45 35.10L59.45 34.40Q59.45 30.60 56.90 28.35Q54.35 26.10 49.65 26.10L49.65 26.10Q45.35 26.10 41.60 28.25Q37.85 30.40 35.25 34.40L35.25 34.40L25.75 25.60Q27.75 23.00 30.15 20.85Q32.55 18.70 35.45 17.15Q38.35 15.60 42 14.75Q45.65 13.90 50.25 13.90L50.25 13.90Q55.95 13.90 60.55 15.20Q65.15 16.50 68.40 18.95Q71.65 21.40 73.45 24.80Q75.25 28.20 75.25 32.40L75.25 32.40Q75.25 35.70 74.15 38.40Q73.05 41.10 71.20 43.10Q69.35 45.10 66.90 46.35Q64.45 47.60 61.65 48.10L61.65 48.10L61.65 48.70Q68.05 49.80 72.30 54.05Q76.55 58.30 76.55 65.50L76.55 65.50Q76.55 70.20 74.60 74.00Q72.65 77.80 69.10 80.50Q65.55 83.20 60.50 84.65Q55.45 86.10 49.25 86.10L49.25 86.10Q43.95 86.10 39.90 85.00Q35.85 83.90 32.75 82.05Q29.65 80.20 27.40 77.75Q25.15 75.30 23.45 72.70L23.45 72.70L34.55 64.10Q36.85 68.40 40.30 71.15Q43.75 73.90 49.55 73.90L49.55 73.90Q54.95 73.90 57.85 71.40Q60.75 68.90 60.75 64.50L60.75 64.50L60.75 63.80Q60.75 59.50 57.45 57.35Q54.15 55.20 48.25 55.20L48.25 55.20L41.75 55.20L41.75 42.70Z"/></svg>