<svg xmlns="http://www.w3.org/2000/svg" width="256" height="256" viewBox="0 0 100 100"><path fill="white" stroke="black" stroke-width="4" d="M39.27 40.51L47.86 40.51Q55.39 40.51 58.84 37.65Q62.28 34.79 62.28 30.63L62.28 30.63L62.28 29.72Q62.28 24.78 58.97 21.86Q55.66 18.93 49.55 18.93L49.55 18.93Q43.95 18.93 39.08 21.73Q34.20 24.52 30.82 29.72L30.82 29.72L18.47 18.28Q21.07 14.90 24.20 12.11Q27.31 9.31 31.08 7.30Q34.86 5.28 39.60 4.17Q44.34 3.07 50.33 3.07L50.33 3.07Q57.73 3.07 63.72 4.76Q69.70 6.45 73.92 9.64Q78.14 12.82 80.48 17.24Q82.83 21.66 82.83 27.12L82.83 27.12Q82.83 31.41 81.39 34.92Q79.97 38.43 77.56 41.03Q75.16 43.63 71.97 45.26Q68.78 46.88 65.14 47.53L65.14 47.53L65.14 48.31Q73.47 49.74 78.99 55.27Q84.52 60.79 84.52 70.15L84.52 70.15Q84.52 76.26 81.98 81.20Q79.44 86.14 74.83 89.65Q70.22 93.16 63.65 95.05Q57.08 96.93 49.03 96.93L49.03 96.93Q42.13 96.93 36.87 95.50Q31.61 94.07 27.57 91.67Q23.54 89.26 20.62 86.08Q17.70 82.89 15.48 79.51L15.48 79.51L29.91 68.33Q32.91 73.92 37.39 77.50Q41.88 81.07 49.42 81.07L49.42 81.07Q56.44 81.07 60.20 77.82Q63.97 74.57 63.97 68.85L63.97 68.85L63.97 67.94Q63.97 62.35 59.69 59.56Q55.39 56.76 47.72 56.76L47.72 56.76L39.27 56.76L39.27 40.51Z"></path></svg>